<svg width="121" height="54" viewBox="0 0 121 54" fill="none" xmlns="http://www.w3.org/2000/svg">
<path d="M11.2571 35.2859C11.6098 33.7024 10.7375 32.3218 8.6686 31.5604C6.57305 30.7892 4.83486 31.2514 4.25934 32.8317C3.80267 34.0562 4.28345 35.1352 5.76537 36.0438L7.07973 36.8484C7.74126 37.2554 7.97037 37.6363 7.82994 38.0508C7.6407 38.5321 6.98526 38.6845 6.19076 38.3921C5.38027 38.0938 4.96927 37.549 5.07592 36.8315L2.79856 36.1266C2.43492 37.7727 3.41279 39.2284 5.58299 40.0271C7.7052 40.8081 9.62323 40.2849 10.2232 38.6712C10.6535 37.4855 10.1413 36.4918 8.67199 35.5818L7.29954 34.7376C6.59786 34.2917 6.41141 33.9264 6.56196 33.5338C6.73716 33.0413 7.40945 32.9255 8.1133 33.1845C8.90246 33.4749 9.21275 34.0795 9.13045 34.6486L11.2571 35.2859Z" fill="#089285"/>
<path d="M19.4441 44.411C21.69 45.0076 23.4514 44.0647 24.0763 42.1554L21.8687 41.5689C21.4922 42.433 20.7649 42.7807 19.9632 42.5677C18.8704 42.2774 18.4057 41.1721 18.8346 39.5577C19.2576 37.9652 20.2137 37.2433 21.301 37.5321C22.1576 37.7597 22.5565 38.4712 22.4596 39.3449L24.6671 39.9314C25.0861 37.9557 23.9489 36.2838 21.7469 35.6988C19.1879 35.019 17.1352 36.3725 16.4481 38.9589C15.7668 41.5234 16.8467 43.7209 19.4441 44.411Z" fill="#089285"/>
<path d="M32.844 47.3638C34.1165 47.5738 35.0322 47.1547 35.5849 46.4224L35.6522 46.4335L35.4552 47.6276L37.72 48.0012L38.6781 42.1933C39.0166 40.1415 37.4211 38.9915 35.5039 38.6752C33.4409 38.3349 31.9214 39.0977 31.3317 40.6129L33.5109 41.1566C33.7678 40.6116 34.3473 40.2754 35.2051 40.4168C36.0179 40.5509 36.4157 41.0369 36.2992 41.7433L36.2936 41.7769C36.2021 42.3319 35.6014 42.3077 34.0806 42.2065C32.3504 42.0824 30.7257 42.4017 30.4084 44.3246C30.1273 46.0288 31.2014 47.0928 32.844 47.3638ZM33.7998 45.8285C33.0654 45.7073 32.5948 45.2784 32.7031 44.6225C32.814 43.9498 33.4236 43.7106 34.2839 43.7316C34.8173 43.7447 35.6898 43.7619 36.0071 43.6185L35.8564 44.5323C35.7075 45.4349 34.8481 46.0014 33.7998 45.8285Z" fill="#089285"/>
<path d="M48.7845 37.4858L46.3725 37.2843L45.4037 48.8803L47.8157 49.0818L48.7845 37.4858Z" fill="#089285"/>
<path d="M58.0075 49.7144C59.2972 49.7185 60.1343 49.1587 60.563 48.3476L60.6312 48.3478L60.6273 49.558L62.9228 49.5654L62.9416 43.6791C62.9483 41.5995 61.1897 40.7189 59.2466 40.7126C57.1557 40.7059 55.7775 41.7015 55.4371 43.2914L57.6752 43.4804C57.8418 42.9013 58.3602 42.4769 59.2295 42.4796C60.0534 42.4823 60.5237 42.8986 60.5214 43.6145L60.5213 43.6486C60.5194 44.2111 59.9226 44.283 58.4051 44.4259C56.6773 44.5794 55.1244 45.154 55.1181 47.1029C55.1126 48.8301 56.3427 49.7091 58.0075 49.7144ZM58.706 48.0462C57.9617 48.0438 57.4287 47.6955 57.4308 47.0307C57.433 46.3489 57.9966 46.0155 58.8493 45.8989C59.3779 45.8267 60.2419 45.7045 60.5323 45.5122L60.5294 46.4384C60.5264 47.3531 59.7685 48.0496 58.706 48.0462Z" fill="#089285"/>
<path d="M70.7312 49.2578L73.1066 49.0286L72.9724 47.6373L73.0798 47.627C73.4833 48.3187 74.2909 49.0571 75.6935 48.9218C77.6729 48.7308 79.0658 47.0153 78.7853 44.1083C78.4973 41.1222 76.7425 39.7959 74.8366 39.9798C73.3831 40.12 72.7709 41.0524 72.5168 41.7904L72.4432 41.7975L72.0231 37.4427L69.6139 37.6752L70.7312 49.2578ZM72.6706 44.6868C72.5211 43.1372 73.0817 42.0841 74.2524 41.9712C75.4457 41.8561 76.179 42.8299 76.3241 44.3343C76.4703 45.85 75.9271 46.9641 74.745 47.0782C73.5857 47.19 72.8201 46.2364 72.6706 44.6868Z" fill="#089285"/>
<path d="M87.0068 35.4139L84.6252 35.8461L86.703 47.2954L89.0846 46.8632L87.0068 35.4139Z" fill="#089285"/>
<path d="M100.531 44.4489C102.617 43.8946 103.753 42.5052 103.667 40.8526L101.465 41.2847C101.4 41.9899 100.885 42.4853 100.105 42.6925C98.9354 43.0032 97.9884 42.4259 97.6543 41.1684L97.6528 41.1629L103.397 39.6369L103.226 38.9944C102.465 36.1279 100.353 35.1722 98.1234 35.7645C95.6413 36.4239 94.5007 38.614 95.1922 41.2169C95.9026 43.8912 97.9331 45.139 100.531 44.4489ZM97.2677 39.7132C97.0618 38.7391 97.5879 37.7762 98.6258 37.5005C99.6417 37.2306 100.537 37.7687 100.81 38.7722L97.2677 39.7132Z" fill="#089285"/>
<path d="M115.856 32.7113C115.098 31.2769 113.539 30.7912 111.47 31.5526C109.375 32.3238 108.351 33.8025 108.937 35.3788C109.383 36.6072 110.449 37.1172 112.166 36.8484L113.688 36.609C114.456 36.49 114.877 36.6316 115.039 37.0383C115.207 37.5274 114.807 38.0683 114.012 38.3607C113.202 38.6589 112.536 38.5105 112.152 37.895L109.961 38.8346C110.751 40.3237 112.439 40.7983 114.609 39.9996C116.731 39.2186 117.853 37.5769 117.264 35.9593C116.823 34.7775 115.788 34.3529 114.08 34.6124L112.487 34.8593C111.664 34.9746 111.285 34.8173 111.145 34.4208C110.96 33.9322 111.396 33.4082 112.1 33.1492C112.889 32.8587 113.518 33.1179 113.824 33.6046L115.856 32.7113Z" fill="#089285"/>
<path d="M53.2852 12.5938C53.2852 15.655 50.5351 18.1365 47.1426 18.1365C43.7501 18.1365 41 15.655 41 12.5938C41 9.53265 47.1426 1.50836 47.1426 1.50836C47.1426 1.50836 53.2852 9.53265 53.2852 12.5938Z" fill="#089285"/>
<path d="M79.6983 12.5938C79.6983 15.655 76.9482 18.1365 73.5557 18.1365C70.1632 18.1365 67.4131 15.655 67.4131 12.5938C67.4131 9.53265 73.5557 1.50836 73.5557 1.50836C73.5557 1.50836 79.6983 9.53265 79.6983 12.5938Z" fill="#089285"/>
<path fill-rule="evenodd" clip-rule="evenodd" d="M44.3784 1.43902C44.3784 1.16601 44.6184 0.944702 44.9143 0.944702H75.784C76.08 0.944702 76.32 1.16601 76.32 1.43902C76.32 1.71202 76.08 1.93333 75.784 1.93333H60.8851V19.3332C60.8851 19.6062 60.6452 19.8275 60.3492 19.8275C60.0532 19.8275 59.8133 19.6062 59.8133 19.3332V1.93333H44.9143C44.6184 1.93333 44.3784 1.71202 44.3784 1.43902Z" fill="#F34213"/>
</svg>
