<svg width="82" height="35" viewBox="0 0 82 35" fill="none" xmlns="http://www.w3.org/2000/svg">
<g clip-path="url(#clip0)">
<path fill-rule="evenodd" clip-rule="evenodd" d="M50.9439 27.3358C46.2622 32.1675 39.4762 34.7455 33.6337 34.7455C25.4415 34.7455 18.0664 30.5029 12.4868 23.4468C12.0485 22.8919 12.4412 22.1357 12.9673 22.5678C18.9887 27.4732 26.4339 30.4244 34.1247 30.4244C39.3114 30.4244 45.0172 28.9218 50.2636 25.8037C51.0562 25.3323 51.719 26.5305 50.9439 27.3358" fill="#FF9900"/>
<path fill-rule="evenodd" clip-rule="evenodd" d="M52.8902 24.2177C52.294 23.1473 48.9344 23.712 47.4264 23.9624C46.967 24.041 46.8968 23.4812 47.3106 23.0785C49.9864 20.4417 54.3771 21.2028 54.8891 22.0866C55.4011 22.9754 54.7559 29.1379 52.2414 32.0792C51.8556 32.5309 51.4874 32.2903 51.6592 31.6913C52.2239 29.7173 53.4899 25.2931 52.8902 24.2177" fill="#FF9900"/>
<path fill-rule="evenodd" clip-rule="evenodd" d="M47.5316 4.46346V1.90027C47.5316 1.51235 47.742 1.25211 47.9945 1.25211H56.1902C56.4533 1.25211 56.6637 1.51726 56.6637 1.90027V4.09519C56.6602 4.46346 56.4392 4.94467 56.0464 5.70577L51.7995 14.1957C53.3777 14.1417 55.0435 14.4707 56.4743 15.6001C56.7969 15.8554 56.8846 16.2286 56.9092 16.5969V19.3319C56.9092 19.7051 56.6146 20.1421 56.306 19.9163C53.7845 18.0651 50.4353 17.8638 47.6473 19.9359C47.3633 20.152 47.0652 19.7199 47.0652 19.3467V16.7491C47.0652 16.3317 47.0687 15.6197 47.3668 14.9863L52.287 5.10671H48.005C47.742 5.10671 47.5316 4.84647 47.5316 4.46346" fill="black"/>
<path fill-rule="evenodd" clip-rule="evenodd" d="M17.6349 20.4564H15.1414C14.903 20.4319 14.7136 20.1814 14.696 19.8623V1.94448C14.696 1.58602 14.91 1.30122 15.1765 1.30122H17.5016C17.7436 1.31594 17.9365 1.5762 17.954 1.90028V4.24251H17.9996C18.6063 1.97885 19.746 0.923126 21.2821 0.923126C22.8427 0.923126 23.8176 1.97885 24.519 4.24251C25.1222 1.97885 26.4934 0.923126 27.9628 0.923126C29.0079 0.923126 30.1511 1.5271 30.849 2.88235C31.6381 4.38982 31.4768 6.57982 31.4768 8.49977L31.4733 19.8083C31.4733 20.1667 31.2593 20.4564 30.9928 20.4564H28.5029C28.2539 20.4319 28.054 20.152 28.054 19.8083V10.3117C28.054 9.55549 28.1031 7.66992 27.9838 6.95301C27.798 5.74998 27.2404 5.41117 26.5179 5.41117C25.9147 5.41117 25.2835 5.97585 25.0275 6.87936C24.7715 7.78286 24.796 9.29524 24.796 10.3117V19.8083C24.796 20.1667 24.5821 20.4564 24.3156 20.4564H21.8257C21.5732 20.4319 21.3768 20.152 21.3768 19.8083L21.3733 10.3117C21.3733 8.31317 21.6082 5.37188 19.8372 5.37188C18.0452 5.37188 18.1153 8.23952 18.1153 10.3117V19.8083C18.1153 20.1667 17.9014 20.4564 17.6349 20.4564" fill="black"/>
<path fill-rule="evenodd" clip-rule="evenodd" d="M63.7195 0.923126C67.4193 0.923126 69.4218 5.37188 69.4218 11.0286C69.4218 16.4938 67.2089 20.8296 63.7195 20.8296C60.0863 20.8296 58.1084 16.3808 58.1084 10.8371C58.1084 5.25895 60.1109 0.923126 63.7195 0.923126V0.923126ZM63.7405 4.58132C61.9029 4.58132 61.7872 8.08729 61.7872 10.2724C61.7872 12.4624 61.7626 17.137 63.7195 17.137C65.6518 17.137 65.743 13.3659 65.743 11.0679C65.743 9.55548 65.6974 7.74848 65.3713 6.31467C65.0907 5.06745 64.5331 4.58132 63.7405 4.58132" fill="black"/>
<path fill-rule="evenodd" clip-rule="evenodd" d="M74.2195 20.4564H71.7366C71.4876 20.4319 71.2877 20.152 71.2877 19.8083L71.2842 1.88555C71.3052 1.55656 71.5121 1.30122 71.7646 1.30122H74.0757C74.2931 1.31594 74.472 1.52219 74.5211 1.80208V4.54204H74.5667C75.2646 2.09179 76.243 0.923126 77.9649 0.923126C79.0836 0.923126 80.1743 1.48782 80.8757 3.03457C81.5279 4.46838 81.5279 6.87936 81.5279 8.6127V19.8917C81.4999 20.206 81.293 20.4564 81.0475 20.4564H78.547C78.3191 20.4319 78.1297 20.1962 78.1052 19.8917V10.1595C78.1052 8.20024 78.2665 5.3326 76.5446 5.3326C75.9379 5.3326 75.3803 5.9022 75.1032 6.76642C74.7525 7.86142 74.7069 8.95152 74.7069 10.1595V19.8083C74.7034 20.1667 74.486 20.4564 74.2195 20.4564" fill="black"/>
<path fill-rule="evenodd" clip-rule="evenodd" d="M40.9982 11.8977C40.9982 13.2579 41.0227 14.3922 40.5317 15.6001C40.1355 16.5822 39.5042 17.1861 38.8063 17.1861C37.8489 17.1861 37.2878 16.1648 37.2878 14.6573C37.2878 11.6817 39.1921 11.1415 40.9982 11.1415V11.8977V11.8977ZM43.5126 20.4073C43.3478 20.6135 43.1093 20.6283 42.9235 20.4908C42.0958 19.5284 41.945 19.0815 41.4926 18.1633C40.1249 20.1176 39.1535 20.7019 37.3825 20.7019C35.2818 20.7019 33.6511 18.89 33.6511 15.2613C33.6511 12.428 34.7453 10.4983 36.3094 9.55548C37.6631 8.72072 39.5533 8.57341 40.9982 8.34263V7.89088C40.9982 7.06103 41.0438 6.07896 40.6931 5.36206C40.3915 4.7188 39.8093 4.45364 39.2938 4.45364C38.3434 4.45364 37.4982 5.13618 37.2913 6.55035C37.2492 6.86462 37.0844 7.17397 36.8565 7.1887L34.4402 6.82533C34.2368 6.7615 34.0088 6.53071 34.0684 6.0937C34.6225 1.98866 37.2738 0.751251 39.6445 0.751251C40.8579 0.751251 42.443 1.203 43.4004 2.48951C44.6138 4.07555 44.4981 6.1919 44.4981 8.49485V13.9355C44.4981 15.5706 44.982 16.2875 45.4379 17.1714C45.5958 17.4857 45.6308 17.8638 45.4274 18.0995C44.9189 18.6936 44.0141 19.7984 43.5161 20.4171L43.5126 20.4073" fill="black"/>
<path fill-rule="evenodd" clip-rule="evenodd" d="M8.30993 11.8979C8.30993 13.258 8.33448 14.3923 7.84351 15.6003C7.44722 16.5823 6.81948 17.1863 6.11809 17.1863C5.1607 17.1863 4.60309 16.165 4.60309 14.6575C4.60309 11.6818 6.50736 11.1417 8.30993 11.1417V11.8979V11.8979ZM10.8244 20.4075C10.6596 20.6137 10.4211 20.6285 10.2352 20.491C9.4076 19.5285 9.26031 19.0817 8.80441 18.1635C7.4367 20.1178 6.46879 20.7021 4.69427 20.7021C2.59712 20.7021 0.962891 18.8902 0.962891 15.2615C0.962891 12.4282 2.06056 10.4984 3.62115 9.55566C4.97483 8.7209 6.86507 8.5736 8.30993 8.34281V7.89106C8.30993 7.06121 8.35552 6.07914 8.00833 5.36224C7.70323 4.71898 7.12108 4.45382 6.60906 4.45382C5.65868 4.45382 4.81 5.13636 4.60309 6.55054C4.56101 6.8648 4.39618 7.17415 4.17174 7.18888L1.75195 6.82551C1.54855 6.76168 1.3241 6.53089 1.38022 6.09388C1.93782 1.98884 4.58556 0.751434 6.95625 0.751434C8.16965 0.751434 9.75479 1.20319 10.7122 2.48969C11.9256 4.07573 11.8099 6.19208 11.8099 8.49503V13.9357C11.8099 15.5708 12.2938 16.2877 12.7497 17.1716C12.911 17.4858 12.9461 17.8639 12.7427 18.0996C12.2342 18.6938 11.3294 19.7986 10.8314 20.4173L10.8244 20.4075" fill="black"/>
</g>
<defs>
<clipPath id="clip0">
<rect width="80.5649" height="33.9942" fill="white" transform="translate(0.962891 0.751221)"/>
</clipPath>
</defs>
</svg>
