<svg width="348" height="32" viewBox="0 0 348 32" fill="none" xmlns="http://www.w3.org/2000/svg">
<path d="M1.23295 18H2.46591V14.2812H4.69318C7.06463 14.2812 8.13352 12.8395 8.13352 11.0398C8.13352 9.24006 7.06463 7.81818 4.6733 7.81818H1.23295V18ZM2.46591 13.1875V8.91193H4.63352C6.28906 8.91193 6.92045 9.81676 6.92045 11.0398C6.92045 12.2628 6.28906 13.1875 4.65341 13.1875H2.46591ZM9.82058 18H10.9939V13.1676C10.9939 12.1335 11.8092 11.3778 12.9229 11.3778C13.2361 11.3778 13.5592 11.4375 13.6388 11.4574V10.2642C13.5045 10.2543 13.1963 10.2443 13.0223 10.2443C12.1075 10.2443 11.3121 10.7614 11.0337 11.517H10.9541V10.3636H9.82058V18ZM14.8896 18H16.0629V10.3636H14.8896V18ZM15.4862 9.09091C15.9435 9.09091 16.3214 8.73295 16.3214 8.29545C16.3214 7.85795 15.9435 7.5 15.4862 7.5C15.0288 7.5 14.6509 7.85795 14.6509 8.29545C14.6509 8.73295 15.0288 9.09091 15.4862 9.09091ZM24.3162 10.3636H23.0434L20.9355 16.4489H20.8559L18.748 10.3636H17.4752L20.2991 18H21.4923L24.3162 10.3636ZM27.7395 18.179C29.0719 18.179 29.7679 17.4631 30.0066 16.9659H30.0662V18H31.2395V12.9688C31.2395 10.5426 29.3901 10.2642 28.4157 10.2642C27.2623 10.2642 25.9498 10.6619 25.3532 12.054L26.4668 12.4517C26.7253 11.8949 27.3368 11.2983 28.4554 11.2983C29.5343 11.2983 30.0662 11.87 30.0662 12.8494V12.8892C30.0662 13.456 29.4895 13.4062 28.0975 13.5852C26.6806 13.7692 25.1344 14.0824 25.1344 15.8324C25.1344 17.3239 26.2878 18.179 27.7395 18.179ZM27.9185 17.125C26.9839 17.125 26.3077 16.7074 26.3077 15.892C26.3077 14.9972 27.1231 14.7188 28.0378 14.5994C28.535 14.5398 29.8674 14.4006 30.0662 14.1619V15.2358C30.0662 16.1903 29.3106 17.125 27.9185 17.125ZM36.3433 18.1591C38.0337 18.1591 39.1473 17.125 39.3462 15.7727H38.1729C37.9541 16.608 37.2581 17.1051 36.3433 17.1051C34.9513 17.1051 34.0564 15.9517 34.0564 14.1818C34.0564 12.4517 34.9712 11.3182 36.3433 11.3182C37.3774 11.3182 37.9939 11.9545 38.1729 12.6506H39.3462C39.1473 11.2188 37.9342 10.2642 36.3234 10.2642C34.2553 10.2642 32.8831 11.8949 32.8831 14.2216C32.8831 16.5085 34.1956 18.1591 36.3433 18.1591ZM41.677 20.8636C42.736 20.8636 43.4817 20.3018 43.9242 19.1136L47.1756 10.3835L45.893 10.3636L43.785 16.4489H43.7055L41.5975 10.3636H40.3248L43.1486 18.0398L42.9299 18.6364C42.5023 19.7997 41.9753 19.9091 41.1202 19.6903L40.8219 20.7244C40.9412 20.7841 41.2793 20.8636 41.677 20.8636Z" fill="#949494"/>
<path d="M80.724 12C80.3461 9.91193 78.6757 8.67898 76.6274 8.67898C74.0223 8.67898 72.1331 10.6875 72.1331 13.9091C72.1331 17.1307 74.0223 19.1392 76.6274 19.1392C78.6757 19.1392 80.3461 17.9062 80.724 15.8182H79.491C79.1927 17.2301 77.9797 17.9858 76.6274 17.9858C74.778 17.9858 73.3263 16.554 73.3263 13.9091C73.3263 11.2642 74.778 9.83239 76.6274 9.83239C77.9797 9.83239 79.1927 10.5881 79.491 12H80.724ZM85.5195 19.1591C87.5877 19.1591 88.9798 17.5881 88.9798 15.2216C88.9798 12.8352 87.5877 11.2642 85.5195 11.2642C83.4514 11.2642 82.0593 12.8352 82.0593 15.2216C82.0593 17.5881 83.4514 19.1591 85.5195 19.1591ZM85.5195 18.1051C83.9485 18.1051 83.2326 16.7528 83.2326 15.2216C83.2326 13.6903 83.9485 12.3182 85.5195 12.3182C87.0906 12.3182 87.8065 13.6903 87.8065 15.2216C87.8065 16.7528 87.0906 18.1051 85.5195 18.1051ZM93.733 19.1591C95.8012 19.1591 97.1933 17.5881 97.1933 15.2216C97.1933 12.8352 95.8012 11.2642 93.733 11.2642C91.6649 11.2642 90.2728 12.8352 90.2728 15.2216C90.2728 17.5881 91.6649 19.1591 93.733 19.1591ZM93.733 18.1051C92.162 18.1051 91.4461 16.7528 91.4461 15.2216C91.4461 13.6903 92.162 12.3182 93.733 12.3182C95.3041 12.3182 96.02 13.6903 96.02 15.2216C96.02 16.7528 95.3041 18.1051 93.733 18.1051ZM98.8443 19H100.018V16.1413L100.838 15.3807L103.697 19H105.188L101.723 14.625L104.949 11.3636H103.498L100.157 14.7642H100.018V8.81818H98.8443V19ZM106.32 19H107.493V11.3636H106.32V19ZM106.916 10.0909C107.374 10.0909 107.751 9.73295 107.751 9.29545C107.751 8.85795 107.374 8.5 106.916 8.5C106.459 8.5 106.081 8.85795 106.081 9.29545C106.081 9.73295 106.459 10.0909 106.916 10.0909ZM112.703 19.1591C114.255 19.1591 115.388 18.3835 115.746 17.2301L114.613 16.9119C114.314 17.7074 113.623 18.1051 112.703 18.1051C111.326 18.1051 110.377 17.2152 110.322 15.5795H115.865V15.0824C115.865 12.2386 114.175 11.2642 112.584 11.2642C110.516 11.2642 109.144 12.8949 109.144 15.2415C109.144 17.5881 110.496 19.1591 112.703 19.1591ZM110.322 14.5653C110.402 13.3771 111.242 12.3182 112.584 12.3182C113.857 12.3182 114.672 13.2727 114.672 14.5653H110.322ZM122.919 13.0739C122.551 11.9901 121.726 11.2642 120.215 11.2642C118.604 11.2642 117.411 12.179 117.411 13.4716C117.411 14.5256 118.037 15.2315 119.439 15.5597L120.712 15.858C121.483 16.0369 121.845 16.4048 121.845 16.9318C121.845 17.5881 121.149 18.125 120.056 18.125C119.096 18.125 118.495 17.7124 118.286 16.892L117.172 17.1705C117.446 18.468 118.514 19.1591 120.076 19.1591C121.85 19.1591 123.059 18.1896 123.059 16.8722C123.059 15.8082 122.392 15.1371 121.03 14.804L119.897 14.5256C118.992 14.3018 118.584 13.9986 118.584 13.4119C118.584 12.7557 119.28 12.2784 120.215 12.2784C121.239 12.2784 121.662 12.8452 121.865 13.3722L122.919 13.0739Z" fill="#949494"/>
<path d="M160.695 8.81818V15.4602C160.695 16.9517 159.671 18.0256 157.971 18.0256C156.271 18.0256 155.246 16.9517 155.246 15.4602V8.81818H154.013V15.5597C154.013 17.6477 155.575 19.179 157.971 19.179C160.367 19.179 161.928 17.6477 161.928 15.5597V8.81818H160.695ZM169.5 13.0739C169.133 11.9901 168.307 11.2642 166.796 11.2642C165.185 11.2642 163.992 12.179 163.992 13.4716C163.992 14.5256 164.618 15.2315 166.02 15.5597L167.293 15.858C168.064 16.0369 168.427 16.4048 168.427 16.9318C168.427 17.5881 167.731 18.125 166.637 18.125C165.677 18.125 165.076 17.7124 164.867 16.892L163.753 17.1705C164.027 18.468 165.096 19.1591 166.657 19.1591C168.432 19.1591 169.64 18.1896 169.64 16.8722C169.64 15.8082 168.973 15.1371 167.611 14.804L166.478 14.5256C165.573 14.3018 165.165 13.9986 165.165 13.4119C165.165 12.7557 165.861 12.2784 166.796 12.2784C167.82 12.2784 168.243 12.8452 168.446 13.3722L169.5 13.0739ZM174.467 19.1591C176.019 19.1591 177.152 18.3835 177.51 17.2301L176.377 16.9119C176.078 17.7074 175.387 18.1051 174.467 18.1051C173.09 18.1051 172.141 17.2152 172.086 15.5795H177.629V15.0824C177.629 12.2386 175.939 11.2642 174.348 11.2642C172.28 11.2642 170.908 12.8949 170.908 15.2415C170.908 17.5881 172.26 19.1591 174.467 19.1591ZM172.086 14.5653C172.166 13.3771 173.006 12.3182 174.348 12.3182C175.621 12.3182 176.436 13.2727 176.436 14.5653H172.086ZM179.274 19H180.448V14.1676C180.448 13.1335 181.263 12.3778 182.376 12.3778C182.69 12.3778 183.013 12.4375 183.092 12.4574V11.2642C182.958 11.2543 182.65 11.2443 182.476 11.2443C181.561 11.2443 180.766 11.7614 180.487 12.517H180.408V11.3636H179.274V19ZM188.717 19L189.742 16.1165H193.858L194.882 19H196.175L192.436 8.81818H191.163L187.425 19H188.717ZM190.129 15.0227L191.76 10.429H191.84L193.47 15.0227H190.129ZM200.544 22.0227C202.374 22.0227 203.845 21.1875 203.845 19.2188V11.3636H202.712V12.5767H202.592C202.334 12.179 201.857 11.2642 200.365 11.2642C198.436 11.2642 197.104 12.7955 197.104 15.142C197.104 17.5284 198.496 18.8807 200.345 18.8807C201.837 18.8807 202.314 18.0057 202.572 17.5881H202.672V19.1392C202.672 20.4119 201.777 20.9886 200.544 20.9886C199.157 20.9886 198.67 20.2578 198.357 19.8352L197.422 20.4915C197.899 21.2919 198.839 22.0227 200.544 22.0227ZM200.504 17.8267C199.033 17.8267 198.277 16.7131 198.277 15.1222C198.277 13.571 199.013 12.3182 200.504 12.3182C201.936 12.3182 202.692 13.4716 202.692 15.1222C202.692 16.8125 201.916 17.8267 200.504 17.8267ZM205.853 19H207.026V14.1676C207.026 13.1335 207.842 12.3778 208.955 12.3778C209.268 12.3778 209.592 12.4375 209.671 12.4574V11.2642C209.537 11.2543 209.229 11.2443 209.055 11.2443C208.14 11.2443 207.344 11.7614 207.066 12.517H206.986V11.3636H205.853V19ZM213.891 19.1591C215.442 19.1591 216.576 18.3835 216.934 17.2301L215.8 16.9119C215.502 17.7074 214.811 18.1051 213.891 18.1051C212.514 18.1051 211.564 17.2152 211.51 15.5795H217.053V15.0824C217.053 12.2386 215.363 11.2642 213.772 11.2642C211.704 11.2642 210.332 12.8949 210.332 15.2415C210.332 17.5881 211.684 19.1591 213.891 19.1591ZM211.51 14.5653C211.589 13.3771 212.43 12.3182 213.772 12.3182C215.045 12.3182 215.86 13.2727 215.86 14.5653H211.51ZM221.9 19.1591C223.451 19.1591 224.584 18.3835 224.942 17.2301L223.809 16.9119C223.51 17.7074 222.819 18.1051 221.9 18.1051C220.522 18.1051 219.573 17.2152 219.518 15.5795H225.062V15.0824C225.062 12.2386 223.371 11.2642 221.78 11.2642C219.712 11.2642 218.34 12.8949 218.34 15.2415C218.34 17.5881 219.692 19.1591 221.9 19.1591ZM219.518 14.5653C219.598 13.3771 220.438 12.3182 221.78 12.3182C223.053 12.3182 223.868 13.2727 223.868 14.5653H219.518ZM226.706 19H227.88V14.2273C227.88 13.1087 228.695 12.3182 229.61 12.3182C230.5 12.3182 231.121 12.8999 231.121 13.7699V19H232.314V14.0284C232.314 13.044 232.931 12.3182 234.005 12.3182C234.84 12.3182 235.556 12.7607 235.556 13.8892V19H236.729V13.8892C236.729 12.0945 235.765 11.2642 234.402 11.2642C233.309 11.2642 232.508 11.7663 232.115 12.5568H232.036C231.658 11.7415 230.992 11.2642 229.988 11.2642C228.993 11.2642 228.257 11.7415 227.939 12.5568H227.84V11.3636H226.706V19ZM241.936 19.1591C243.487 19.1591 244.621 18.3835 244.979 17.2301L243.845 16.9119C243.547 17.7074 242.856 18.1051 241.936 18.1051C240.559 18.1051 239.609 17.2152 239.555 15.5795H245.098V15.0824C245.098 12.2386 243.408 11.2642 241.817 11.2642C239.749 11.2642 238.376 12.8949 238.376 15.2415C238.376 17.5881 239.729 19.1591 241.936 19.1591ZM239.555 14.5653C239.634 13.3771 240.474 12.3182 241.817 12.3182C243.089 12.3182 243.905 13.2727 243.905 14.5653H239.555ZM247.916 14.4062C247.916 13.0739 248.741 12.3182 249.865 12.3182C250.954 12.3182 251.615 13.0291 251.615 14.2273V19H252.788V14.1477C252.788 12.1989 251.749 11.2642 250.203 11.2642C249.05 11.2642 248.334 11.7812 247.976 12.5568H247.876V11.3636H246.743V19H247.916V14.4062ZM258.113 11.3636H256.483V9.53409H255.309V11.3636H254.156V12.358H255.309V17.1307C255.309 18.4631 256.383 19.0994 257.377 19.0994C257.815 19.0994 258.093 19.0199 258.252 18.9602L258.014 17.9062C257.914 17.9261 257.755 17.9659 257.497 17.9659C256.98 17.9659 256.483 17.8068 256.483 16.8125V12.358H258.113V11.3636Z" fill="#949494"/>
<path d="M284.295 19L285.319 16.1165H289.435L290.459 19H291.752L288.013 8.81818H286.741L283.002 19H284.295ZM285.707 15.0227L287.337 10.429H287.417L289.047 15.0227H285.707ZM293.198 19H294.331V17.8267H294.471C294.729 18.2443 295.226 19.1591 296.698 19.1591C298.607 19.1591 299.939 17.6278 299.939 15.2017C299.939 12.7955 298.607 11.2642 296.678 11.2642C295.187 11.2642 294.729 12.179 294.471 12.5767H294.371V8.81818H293.198V19ZM294.351 15.1818C294.351 13.4716 295.107 12.3182 296.539 12.3182C298.03 12.3182 298.766 13.571 298.766 15.1818C298.766 16.8125 298.01 18.1051 296.539 18.1051C295.127 18.1051 294.351 16.9119 294.351 15.1818ZM304.696 19.1591C306.765 19.1591 308.157 17.5881 308.157 15.2216C308.157 12.8352 306.765 11.2642 304.696 11.2642C302.628 11.2642 301.236 12.8352 301.236 15.2216C301.236 17.5881 302.628 19.1591 304.696 19.1591ZM304.696 18.1051C303.125 18.1051 302.409 16.7528 302.409 15.2216C302.409 13.6903 303.125 12.3182 304.696 12.3182C306.267 12.3182 306.983 13.6903 306.983 15.2216C306.983 16.7528 306.267 18.1051 304.696 18.1051ZM314.62 15.8778C314.62 17.3097 313.526 17.9659 312.651 17.9659C311.677 17.9659 310.981 17.25 310.981 16.1364V11.3636H309.808V16.2159C309.808 18.1648 310.842 19.0994 312.274 19.0994C313.427 19.0994 314.183 18.483 314.541 17.7074H314.62V19H315.793V11.3636H314.62V15.8778ZM321.123 11.3636H319.493V9.53409H318.319V11.3636H317.166V12.358H318.319V17.1307C318.319 18.4631 319.393 19.0994 320.388 19.0994C320.825 19.0994 321.104 19.0199 321.263 18.9602L321.024 17.9062C320.925 17.9261 320.766 17.9659 320.507 17.9659C319.99 17.9659 319.493 17.8068 319.493 16.8125V12.358H321.123V11.3636Z" fill="#949494"/>
<path d="M59.6521 9.53693H58.6578V26.2812H59.6521V9.53693Z" fill="#949494"/>
<path d="M270.999 6.87031H270.004V23.6146H270.999V6.87031Z" fill="#949494"/>
<path d="M141.136 6.87031H140.141V23.6146H141.136V6.87031Z" fill="#949494"/>
</svg>
