<svg width="824" height="24" viewBox="0 0 824 24" fill="none" xmlns="http://www.w3.org/2000/svg">
<path d="M11.2784 8.4375C10.9545 5.75 8.92045 4.20455 6.22727 4.20455C3.15341 4.20455 0.806818 6.375 0.806818 10.1818C0.806818 13.9773 3.11364 16.1591 6.22727 16.1591C9.21023 16.1591 11.0114 14.1761 11.2784 12.0341L8.78977 12.0227C8.55682 13.267 7.57955 13.983 6.26705 13.983C4.5 13.983 3.30114 12.6705 3.30114 10.1818C3.30114 7.76136 4.48295 6.38068 6.28409 6.38068C7.63068 6.38068 8.60227 7.15909 8.78977 8.4375H11.2784ZM16.7803 16.1705C19.4281 16.1705 21.0758 14.358 21.0758 11.6705C21.0758 8.96591 19.4281 7.15909 16.7803 7.15909C14.1326 7.15909 12.4849 8.96591 12.4849 11.6705C12.4849 14.358 14.1326 16.1705 16.7803 16.1705ZM16.7917 14.2955C15.5701 14.2955 14.9451 13.1761 14.9451 11.6534C14.9451 10.1307 15.5701 9.00568 16.7917 9.00568C17.9906 9.00568 18.6156 10.1307 18.6156 11.6534C18.6156 13.1761 17.9906 14.2955 16.7917 14.2955ZM22.4897 19.2727H24.9101V14.6023H24.984C25.3192 15.3295 26.0522 16.142 27.4613 16.142C29.4499 16.142 31.001 14.5682 31.001 11.6477C31.001 8.64773 29.3817 7.15909 27.4669 7.15909C26.0067 7.15909 25.3078 8.02841 24.984 8.73864H24.876V7.27273H22.4897V19.2727ZM24.859 11.6364C24.859 10.0795 25.5181 9.08523 26.6942 9.08523C27.8931 9.08523 28.5294 10.125 28.5294 11.6364C28.5294 13.1591 27.8817 14.2159 26.6942 14.2159C25.5294 14.2159 24.859 13.1932 24.859 11.6364ZM33.6521 19.2727C35.4532 19.2727 36.4078 18.3523 36.9021 16.9432L40.2941 7.28409L37.7316 7.27273L35.9078 13.6818H35.8169L34.0101 7.27273H31.4646L34.5953 16.25L34.4532 16.6193C34.1351 17.4375 33.5271 17.4773 32.6748 17.2159L32.1294 19.0227C32.476 19.1705 33.0385 19.2727 33.6521 19.2727ZM41.3728 16H43.7932V11.0625C43.7932 9.98864 44.5773 9.25 45.6455 9.25C45.9807 9.25 46.441 9.30682 46.6682 9.38068V7.23295C46.4523 7.18182 46.1512 7.14773 45.9069 7.14773C44.9296 7.14773 44.1285 7.71591 43.8103 8.79545H43.7194V7.27273H41.3728V16ZM47.7597 16H50.1801V7.27273H47.7597V16ZM48.9756 6.14773C49.6972 6.14773 50.2881 5.59659 50.2881 4.92045C50.2881 4.25 49.6972 3.69886 48.9756 3.69886C48.2597 3.69886 47.6688 4.25 47.6688 4.92045C47.6688 5.59659 48.2597 6.14773 48.9756 6.14773ZM55.8909 19.4545C58.3852 19.4545 60.1579 18.3182 60.1579 16.0852V7.27273H57.7545V8.73864H57.6636C57.3397 8.02841 56.6295 7.15909 55.1693 7.15909C53.2545 7.15909 51.6352 8.64773 51.6352 11.6193C51.6352 14.5227 53.209 15.875 55.1749 15.875C56.567 15.875 57.3454 15.1761 57.6636 14.4545H57.7659V16.0511C57.7659 17.25 56.9988 17.7159 55.9477 17.7159C54.8795 17.7159 54.3397 17.25 54.1409 16.7216L51.9022 17.0227C52.192 18.3977 53.5386 19.4545 55.8909 19.4545ZM55.942 14.0568C54.7545 14.0568 54.1068 13.1136 54.1068 11.608C54.1068 10.125 54.7431 9.08523 55.942 9.08523C57.1181 9.08523 57.7772 10.0795 57.7772 11.608C57.7772 13.1477 57.1068 14.0568 55.942 14.0568ZM64.3445 10.9545C64.3502 9.82955 65.0377 9.17045 66.0263 9.17045C67.0093 9.17045 67.5888 9.80114 67.5831 10.875V16H70.0036V10.4432C70.0093 8.39773 68.8047 7.15909 66.9865 7.15909C65.6627 7.15909 64.7763 7.78409 64.3786 8.8125H64.2763V4.36364H61.924V16H64.3445V10.9545ZM76.3905 7.27273H74.7484V5.18182H72.328V7.27273H71.1348V9.09091H72.328V13.6364C72.3166 15.3466 73.4814 16.1932 75.237 16.1193C75.862 16.0966 76.3052 15.9716 76.5495 15.892L76.1689 14.0909C76.0495 14.1136 75.7939 14.1705 75.5666 14.1705C75.0836 14.1705 74.7484 13.9886 74.7484 13.3182V9.09091H76.3905V7.27273ZM99.0432 16H107.339V13.9886H102.452V13.9091L104.151 12.2443C106.543 10.0625 107.185 8.97159 107.185 7.64773C107.185 5.63068 105.537 4.20455 103.043 4.20455C100.6 4.20455 98.9239 5.66477 98.9295 7.94886H101.265C101.259 6.83523 101.964 6.15341 103.026 6.15341C104.049 6.15341 104.81 6.78977 104.81 7.8125C104.81 8.73864 104.242 9.375 103.185 10.392L99.0432 14.2273V16ZM113.524 16.2557C116.45 16.2557 118.217 14.0284 118.223 10.1932C118.228 6.38636 116.439 4.20455 113.524 4.20455C110.603 4.20455 108.831 6.38068 108.825 10.1932C108.814 14.017 110.592 16.25 113.524 16.2557ZM113.524 14.2159C112.189 14.2159 111.325 12.875 111.331 10.1932C111.336 7.55114 112.194 6.22159 113.524 6.22159C114.848 6.22159 115.711 7.55114 115.711 10.1932C115.717 12.875 114.853 14.2159 113.524 14.2159ZM119.817 16H128.112V13.9886H123.226V13.9091L124.925 12.2443C127.317 10.0625 127.959 8.97159 127.959 7.64773C127.959 5.63068 126.311 4.20455 123.817 4.20455C121.374 4.20455 119.698 5.66477 119.703 7.94886H122.039C122.033 6.83523 122.737 6.15341 123.8 6.15341C124.823 6.15341 125.584 6.78977 125.584 7.8125C125.584 8.73864 125.016 9.375 123.959 10.392L119.817 14.2273V16ZM134.798 4.36364H132.485L129.604 6.1875V8.36932L132.269 6.69886H132.337V16H134.798V4.36364ZM147.327 7.71023H149.685C149.651 5.63636 147.946 4.20455 145.355 4.20455C142.804 4.20455 140.935 5.61364 140.946 7.72727C140.941 9.44318 142.151 10.4261 144.117 10.8977L145.384 11.2159C146.651 11.5227 147.355 11.8864 147.361 12.6705C147.355 13.5227 146.549 14.1023 145.299 14.1023C144.02 14.1023 143.1 13.5114 143.02 12.3466H140.639C140.702 14.8636 142.503 16.1648 145.327 16.1648C148.168 16.1648 149.838 14.8068 149.844 12.6761C149.838 10.7386 148.378 9.71023 146.355 9.25568L145.31 9.00568C144.299 8.77273 143.452 8.39773 143.469 7.5625C143.469 6.8125 144.134 6.26136 145.338 6.26136C146.514 6.26136 147.236 6.79545 147.327 7.71023ZM155.237 16.1705C157.56 16.1705 159.021 14.8068 159.134 12.8011H156.85C156.708 13.733 156.095 14.2557 155.265 14.2557C154.134 14.2557 153.401 13.3068 153.401 11.6364C153.401 9.98864 154.14 9.04545 155.265 9.04545C156.151 9.04545 156.72 9.63068 156.85 10.5H159.134C159.032 8.48295 157.504 7.15909 155.225 7.15909C152.577 7.15909 150.941 8.99432 150.941 11.6705C150.941 14.3239 152.549 16.1705 155.237 16.1705ZM163.013 16.1648C164.302 16.1648 165.138 15.6023 165.564 14.7898H165.632V16H167.927V10.1136C167.927 8.03409 166.166 7.15909 164.223 7.15909C162.132 7.15909 160.757 8.15909 160.422 9.75L162.66 9.93182C162.825 9.35227 163.342 8.92614 164.212 8.92614C165.035 8.92614 165.507 9.34091 165.507 10.0568V10.0909C165.507 10.6534 164.91 10.7273 163.393 10.875C161.666 11.0341 160.115 11.6136 160.115 13.5625C160.115 15.2898 161.348 16.1648 163.013 16.1648ZM163.706 14.4943C162.962 14.4943 162.427 14.1477 162.427 13.483C162.427 12.8011 162.99 12.4659 163.842 12.3466C164.371 12.2727 165.234 12.1477 165.524 11.9545V12.8807C165.524 13.7955 164.768 14.4943 163.706 14.4943ZM172.066 4.36364H169.645V16H172.066V4.36364ZM176.333 16.1648C177.623 16.1648 178.458 15.6023 178.884 14.7898H178.953V16H181.248V10.1136C181.248 8.03409 179.487 7.15909 177.544 7.15909C175.453 7.15909 174.078 8.15909 173.742 9.75L175.981 9.93182C176.146 9.35227 176.663 8.92614 177.532 8.92614C178.356 8.92614 178.828 9.34091 178.828 10.0568V10.0909C178.828 10.6534 178.231 10.7273 176.714 10.875C174.987 11.0341 173.436 11.6136 173.436 13.5625C173.436 15.2898 174.669 16.1648 176.333 16.1648ZM177.026 14.4943C176.282 14.4943 175.748 14.1477 175.748 13.483C175.748 12.8011 176.311 12.4659 177.163 12.3466C177.691 12.2727 178.555 12.1477 178.845 11.9545V12.8807C178.845 13.7955 178.089 14.4943 177.026 14.4943ZM183.011 16H185.398V14.6023H185.506C185.841 15.3295 186.574 16.142 187.983 16.142C189.972 16.142 191.523 14.5682 191.523 11.6477C191.523 8.64773 189.903 7.15909 187.989 7.15909C186.528 7.15909 185.83 8.02841 185.506 8.73864H185.432V4.36364H183.011V16ZM185.381 11.6364C185.381 10.0795 186.04 9.08523 187.216 9.08523C188.415 9.08523 189.051 10.125 189.051 11.6364C189.051 13.1591 188.403 14.2159 187.216 14.2159C186.051 14.2159 185.381 13.1932 185.381 11.6364ZM195.398 4.36364H192.978V16H195.398V4.36364ZM201.154 16.1705C203.314 16.1705 204.768 15.1193 205.109 13.5L202.87 13.3523C202.626 14.017 202.001 14.3636 201.194 14.3636C199.984 14.3636 199.217 13.5625 199.217 12.2614V12.2557H205.16V11.5909C205.16 8.625 203.365 7.15909 201.058 7.15909C198.49 7.15909 196.825 8.98295 196.825 11.6761C196.825 14.4432 198.467 16.1705 201.154 16.1705ZM199.217 10.7557C199.268 9.76136 200.024 8.96591 201.098 8.96591C202.149 8.96591 202.876 9.71591 202.882 10.7557H199.217ZM213.841 9.76136C213.625 8.15341 212.33 7.15909 210.125 7.15909C207.892 7.15909 206.421 8.19318 206.426 9.875C206.421 11.1818 207.244 12.0284 208.949 12.3693L210.46 12.6705C211.222 12.8239 211.568 13.1023 211.58 13.5398C211.568 14.0568 211.006 14.4261 210.159 14.4261C209.296 14.4261 208.722 14.0568 208.574 13.3466L206.193 13.4716C206.421 15.142 207.841 16.1705 210.154 16.1705C212.415 16.1705 214.034 15.017 214.04 13.2955C214.034 12.0341 213.21 11.2784 211.517 10.9318L209.938 10.6136C209.125 10.4375 208.824 10.1591 208.83 9.73864C208.824 9.21591 209.415 8.875 210.165 8.875C211.006 8.875 211.506 9.33523 211.625 9.89773L213.841 9.76136ZM221.453 4.36364H218.993V16H221.453V4.36364ZM225.692 10.9545C225.698 9.82955 226.368 9.17045 227.345 9.17045C228.317 9.17045 228.902 9.80682 228.897 10.875V16H231.317V10.4432C231.317 8.40909 230.124 7.15909 228.306 7.15909C227.01 7.15909 226.073 7.79545 225.681 8.8125H225.578V7.27273H223.272V16H225.692V10.9545ZM237.008 16.1705C239.332 16.1705 240.792 14.8068 240.906 12.8011H238.621C238.479 13.733 237.866 14.2557 237.036 14.2557C235.906 14.2557 235.173 13.3068 235.173 11.6364C235.173 9.98864 235.911 9.04545 237.036 9.04545C237.923 9.04545 238.491 9.63068 238.621 10.5H240.906C240.803 8.48295 239.275 7.15909 236.996 7.15909C234.349 7.15909 232.712 8.99432 232.712 11.6705C232.712 14.3239 234.32 16.1705 237.008 16.1705ZM243.71 16.1477C244.437 16.1477 245.068 15.5398 245.074 14.7841C245.068 14.0398 244.437 13.4318 243.71 13.4318C242.96 13.4318 242.341 14.0398 242.346 14.7841C242.341 15.5398 242.96 16.1477 243.71 16.1477Z" fill="#949494"/>
<path d="M415.409 15H416.818V10.75H419.364C422.074 10.75 423.295 9.10227 423.295 7.04545C423.295 4.98864 422.074 3.36364 419.341 3.36364H415.409V15ZM416.818 9.5V4.61364H419.295C421.188 4.61364 421.909 5.64773 421.909 7.04545C421.909 8.44318 421.188 9.5 419.318 9.5H416.818ZM425.224 15H426.564V9.47727C426.564 8.29545 427.496 7.43182 428.769 7.43182C429.127 7.43182 429.496 7.5 429.587 7.52273V6.15909C429.434 6.14773 429.081 6.13636 428.883 6.13636C427.837 6.13636 426.928 6.72727 426.61 7.59091H426.519V6.27273H425.224V15ZM431.017 15H432.358V6.27273H431.017V15ZM431.698 4.81818C432.221 4.81818 432.653 4.40909 432.653 3.90909C432.653 3.40909 432.221 3 431.698 3C431.176 3 430.744 3.40909 430.744 3.90909C430.744 4.40909 431.176 4.81818 431.698 4.81818ZM441.79 6.27273H440.335L437.926 13.2273H437.835L435.426 6.27273H433.972L437.199 15H438.563L441.79 6.27273ZM445.702 15.2045C447.225 15.2045 448.021 14.3864 448.293 13.8182H448.361V15H449.702V9.25C449.702 6.47727 447.589 6.15909 446.475 6.15909C445.157 6.15909 443.657 6.61364 442.975 8.20455L444.248 8.65909C444.543 8.02273 445.242 7.34091 446.521 7.34091C447.753 7.34091 448.361 7.99432 448.361 9.11364V9.15909C448.361 9.80682 447.702 9.75 446.111 9.95455C444.492 10.1648 442.725 10.5227 442.725 12.5227C442.725 14.2273 444.043 15.2045 445.702 15.2045ZM445.907 14C444.839 14 444.066 13.5227 444.066 12.5909C444.066 11.5682 444.998 11.25 446.043 11.1136C446.611 11.0455 448.134 10.8864 448.361 10.6136V11.8409C448.361 12.9318 447.498 14 445.907 14ZM455.535 15.1818C457.467 15.1818 458.74 14 458.967 12.4545H457.626C457.376 13.4091 456.581 13.9773 455.535 13.9773C453.944 13.9773 452.922 12.6591 452.922 10.6364C452.922 8.65909 453.967 7.36364 455.535 7.36364C456.717 7.36364 457.422 8.09091 457.626 8.88636H458.967C458.74 7.25 457.353 6.15909 455.513 6.15909C453.149 6.15909 451.581 8.02273 451.581 10.6818C451.581 13.2955 453.081 15.1818 455.535 15.1818ZM461.631 18.2727C462.841 18.2727 463.693 17.6307 464.199 16.2727L467.915 6.29545L466.449 6.27273L464.04 13.2273H463.949L461.54 6.27273H460.085L463.313 15.0455L463.063 15.7273C462.574 17.0568 461.972 17.1818 460.995 16.9318L460.654 18.1136C460.79 18.1818 461.176 18.2727 461.631 18.2727Z" fill="#949494"/>
<path d="M508.773 8C508.341 5.61364 506.432 4.20455 504.091 4.20455C501.114 4.20455 498.955 6.5 498.955 10.1818C498.955 13.8636 501.114 16.1591 504.091 16.1591C506.432 16.1591 508.341 14.75 508.773 12.3636H507.364C507.023 13.9773 505.636 14.8409 504.091 14.8409C501.977 14.8409 500.318 13.2045 500.318 10.1818C500.318 7.15909 501.977 5.52273 504.091 5.52273C505.636 5.52273 507.023 6.38636 507.364 8H508.773ZM514.253 16.1818C516.617 16.1818 518.208 14.3864 518.208 11.6818C518.208 8.95455 516.617 7.15909 514.253 7.15909C511.89 7.15909 510.299 8.95455 510.299 11.6818C510.299 14.3864 511.89 16.1818 514.253 16.1818ZM514.253 14.9773C512.458 14.9773 511.64 13.4318 511.64 11.6818C511.64 9.93182 512.458 8.36364 514.253 8.36364C516.049 8.36364 516.867 9.93182 516.867 11.6818C516.867 13.4318 516.049 14.9773 514.253 14.9773ZM523.64 16.1818C526.004 16.1818 527.595 14.3864 527.595 11.6818C527.595 8.95455 526.004 7.15909 523.64 7.15909C521.277 7.15909 519.686 8.95455 519.686 11.6818C519.686 14.3864 521.277 16.1818 523.64 16.1818ZM523.64 14.9773C521.845 14.9773 521.027 13.4318 521.027 11.6818C521.027 9.93182 521.845 8.36364 523.64 8.36364C525.436 8.36364 526.254 9.93182 526.254 11.6818C526.254 13.4318 525.436 14.9773 523.64 14.9773ZM529.482 16H530.823V12.733L531.76 11.8636L535.027 16H536.732L532.771 11L536.459 7.27273H534.8L530.982 11.1591H530.823V4.36364H529.482V16ZM538.025 16H539.366V7.27273H538.025V16ZM538.707 5.81818C539.229 5.81818 539.661 5.40909 539.661 4.90909C539.661 4.40909 539.229 4 538.707 4C538.184 4 537.752 4.40909 537.752 4.90909C537.752 5.40909 538.184 5.81818 538.707 5.81818ZM545.321 16.1818C547.093 16.1818 548.389 15.2955 548.798 13.9773L547.503 13.6136C547.162 14.5227 546.372 14.9773 545.321 14.9773C543.747 14.9773 542.662 13.9602 542.599 12.0909H548.934V11.5227C548.934 8.27273 547.003 7.15909 545.184 7.15909C542.821 7.15909 541.253 9.02273 541.253 11.7045C541.253 14.3864 542.798 16.1818 545.321 16.1818ZM542.599 10.9318C542.69 9.57386 543.65 8.36364 545.184 8.36364C546.639 8.36364 547.571 9.45455 547.571 10.9318H542.599ZM556.996 9.22727C556.576 7.98864 555.632 7.15909 553.905 7.15909C552.064 7.15909 550.701 8.20455 550.701 9.68182C550.701 10.8864 551.416 11.6932 553.019 12.0682L554.473 12.4091C555.354 12.6136 555.769 13.0341 555.769 13.6364C555.769 14.3864 554.973 15 553.723 15C552.627 15 551.939 14.5284 551.701 13.5909L550.428 13.9091C550.74 15.392 551.962 16.1818 553.746 16.1818C555.774 16.1818 557.155 15.0739 557.155 13.5682C557.155 12.3523 556.394 11.5852 554.837 11.2045L553.541 10.8864C552.507 10.6307 552.041 10.2841 552.041 9.61364C552.041 8.86364 552.837 8.31818 553.905 8.31818C555.076 8.31818 555.558 8.96591 555.791 9.56818L556.996 9.22727Z" fill="#949494"/>
<path d="M603.045 4.36364V11.9545C603.045 13.6591 601.875 14.8864 599.932 14.8864C597.989 14.8864 596.818 13.6591 596.818 11.9545V4.36364H595.409V12.0682C595.409 14.4545 597.193 16.2045 599.932 16.2045C602.67 16.2045 604.455 14.4545 604.455 12.0682V4.36364H603.045ZM613.108 9.22727C612.688 7.98864 611.745 7.15909 610.018 7.15909C608.177 7.15909 606.813 8.20455 606.813 9.68182C606.813 10.8864 607.529 11.6932 609.131 12.0682L610.586 12.4091C611.466 12.6136 611.881 13.0341 611.881 13.6364C611.881 14.3864 611.086 15 609.836 15C608.739 15 608.052 14.5284 607.813 13.5909L606.54 13.9091C606.853 15.392 608.074 16.1818 609.858 16.1818C611.887 16.1818 613.268 15.0739 613.268 13.5682C613.268 12.3523 612.506 11.5852 610.949 11.2045L609.654 10.8864C608.62 10.6307 608.154 10.2841 608.154 9.61364C608.154 8.86364 608.949 8.31818 610.018 8.31818C611.188 8.31818 611.671 8.96591 611.904 9.56818L613.108 9.22727ZM618.785 16.1818C620.558 16.1818 621.853 15.2955 622.262 13.9773L620.967 13.6136C620.626 14.5227 619.836 14.9773 618.785 14.9773C617.211 14.9773 616.126 13.9602 616.064 12.0909H622.399V11.5227C622.399 8.27273 620.467 7.15909 618.649 7.15909C616.285 7.15909 614.717 9.02273 614.717 11.7045C614.717 14.3864 616.262 16.1818 618.785 16.1818ZM616.064 10.9318C616.154 9.57386 617.115 8.36364 618.649 8.36364C620.103 8.36364 621.035 9.45455 621.035 10.9318H616.064ZM624.279 16H625.619V10.4773C625.619 9.29545 626.551 8.43182 627.824 8.43182C628.182 8.43182 628.551 8.5 628.642 8.52273V7.15909C628.489 7.14773 628.136 7.13636 627.938 7.13636C626.892 7.13636 625.983 7.72727 625.665 8.59091H625.574V7.27273H624.279V16ZM635.071 16L636.241 12.7045H640.946L642.116 16H643.593L639.321 4.36364H637.866L633.593 16H635.071ZM636.684 11.4545L638.548 6.20455H638.639L640.503 11.4545H636.684ZM648.587 19.4545C650.678 19.4545 652.36 18.5 652.36 16.25V7.27273H651.064V8.65909H650.928C650.632 8.20455 650.087 7.15909 648.382 7.15909C646.178 7.15909 644.655 8.90909 644.655 11.5909C644.655 14.3182 646.246 15.8636 648.36 15.8636C650.064 15.8636 650.61 14.8636 650.905 14.3864H651.019V16.1591C651.019 17.6136 649.996 18.2727 648.587 18.2727C647.002 18.2727 646.445 17.4375 646.087 16.9545L645.019 17.7045C645.564 18.6193 646.638 19.4545 648.587 19.4545ZM648.541 14.6591C646.86 14.6591 645.996 13.3864 645.996 11.5682C645.996 9.79545 646.837 8.36364 648.541 8.36364C650.178 8.36364 651.041 9.68182 651.041 11.5682C651.041 13.5 650.155 14.6591 648.541 14.6591ZM654.654 16H655.995V10.4773C655.995 9.29545 656.927 8.43182 658.2 8.43182C658.558 8.43182 658.927 8.5 659.018 8.52273V7.15909C658.864 7.14773 658.512 7.13636 658.313 7.13636C657.268 7.13636 656.359 7.72727 656.041 8.59091H655.95V7.27273H654.654V16ZM663.841 16.1818C665.613 16.1818 666.909 15.2955 667.318 13.9773L666.023 13.6136C665.682 14.5227 664.892 14.9773 663.841 14.9773C662.267 14.9773 661.182 13.9602 661.119 12.0909H667.454V11.5227C667.454 8.27273 665.523 7.15909 663.704 7.15909C661.341 7.15909 659.773 9.02273 659.773 11.7045C659.773 14.3864 661.318 16.1818 663.841 16.1818ZM661.119 10.9318C661.21 9.57386 662.17 8.36364 663.704 8.36364C665.159 8.36364 666.091 9.45455 666.091 10.9318H661.119ZM672.993 16.1818C674.766 16.1818 676.061 15.2955 676.471 13.9773L675.175 13.6136C674.834 14.5227 674.044 14.9773 672.993 14.9773C671.419 14.9773 670.334 13.9602 670.272 12.0909H676.607V11.5227C676.607 8.27273 674.675 7.15909 672.857 7.15909C670.493 7.15909 668.925 9.02273 668.925 11.7045C668.925 14.3864 670.471 16.1818 672.993 16.1818ZM670.272 10.9318C670.363 9.57386 671.323 8.36364 672.857 8.36364C674.311 8.36364 675.243 9.45455 675.243 10.9318H670.272ZM678.487 16H679.828V10.5455C679.828 9.26705 680.759 8.36364 681.805 8.36364C682.822 8.36364 683.532 9.02841 683.532 10.0227V16H684.896V10.3182C684.896 9.19318 685.6 8.36364 686.828 8.36364C687.782 8.36364 688.6 8.86932 688.6 10.1591V16H689.941V10.1591C689.941 8.10795 688.839 7.15909 687.282 7.15909C686.032 7.15909 685.117 7.73295 684.668 8.63636H684.578C684.146 7.70455 683.384 7.15909 682.237 7.15909C681.1 7.15909 680.259 7.70455 679.896 8.63636H679.782V7.27273H678.487V16ZM695.892 16.1818C697.665 16.1818 698.96 15.2955 699.369 13.9773L698.074 13.6136C697.733 14.5227 696.943 14.9773 695.892 14.9773C694.318 14.9773 693.233 13.9602 693.17 12.0909H699.506V11.5227C699.506 8.27273 697.574 7.15909 695.756 7.15909C693.392 7.15909 691.824 9.02273 691.824 11.7045C691.824 14.3864 693.369 16.1818 695.892 16.1818ZM693.17 10.9318C693.261 9.57386 694.222 8.36364 695.756 8.36364C697.21 8.36364 698.142 9.45455 698.142 10.9318H693.17ZM702.726 10.75C702.726 9.22727 703.669 8.36364 704.954 8.36364C706.198 8.36364 706.954 9.17614 706.954 10.5455V16H708.294V10.4545C708.294 8.22727 707.107 7.15909 705.34 7.15909C704.022 7.15909 703.204 7.75 702.794 8.63636H702.681V7.27273H701.385V16H702.726V10.75ZM714.38 7.27273H712.517V5.18182H711.176V7.27273H709.857V8.40909H711.176V13.8636C711.176 15.3864 712.403 16.1136 713.539 16.1136C714.039 16.1136 714.357 16.0227 714.539 15.9545L714.267 14.75C714.153 14.7727 713.971 14.8182 713.676 14.8182C713.085 14.8182 712.517 14.6364 712.517 13.5V8.40909H714.38V7.27273Z" fill="#949494"/>
<path d="M748.886 16L750.057 12.7045H754.761L755.932 16H757.409L753.136 4.36364H751.682L747.409 16H748.886ZM750.5 11.4545L752.364 6.20455H752.455L754.318 11.4545H750.5ZM759.062 16H760.357V14.6591H760.516C760.812 15.1364 761.38 16.1818 763.062 16.1818C765.243 16.1818 766.766 14.4318 766.766 11.6591C766.766 8.90909 765.243 7.15909 763.039 7.15909C761.334 7.15909 760.812 8.20455 760.516 8.65909H760.403V4.36364H759.062V16ZM760.38 11.6364C760.38 9.68182 761.243 8.36364 762.88 8.36364C764.584 8.36364 765.425 9.79545 765.425 11.6364C765.425 13.5 764.562 14.9773 762.88 14.9773C761.266 14.9773 760.38 13.6136 760.38 11.6364ZM772.203 16.1818C774.566 16.1818 776.157 14.3864 776.157 11.6818C776.157 8.95455 774.566 7.15909 772.203 7.15909C769.839 7.15909 768.248 8.95455 768.248 11.6818C768.248 14.3864 769.839 16.1818 772.203 16.1818ZM772.203 14.9773C770.407 14.9773 769.589 13.4318 769.589 11.6818C769.589 9.93182 770.407 8.36364 772.203 8.36364C773.998 8.36364 774.816 9.93182 774.816 11.6818C774.816 13.4318 773.998 14.9773 772.203 14.9773ZM783.544 12.4318C783.544 14.0682 782.294 14.8182 781.294 14.8182C780.181 14.8182 779.385 14 779.385 12.7273V7.27273H778.044V12.8182C778.044 15.0455 779.226 16.1136 780.862 16.1136C782.181 16.1136 783.044 15.4091 783.453 14.5227H783.544V16H784.885V7.27273H783.544V12.4318ZM790.976 7.27273H789.113V5.18182H787.772V7.27273H786.454V8.40909H787.772V13.8636C787.772 15.3864 788.999 16.1136 790.136 16.1136C790.636 16.1136 790.954 16.0227 791.136 15.9545L790.863 14.75C790.749 14.7727 790.567 14.8182 790.272 14.8182C789.681 14.8182 789.113 14.6364 789.113 13.5V8.40909H790.976V7.27273Z" fill="#949494"/>
<path d="M484.182 3.61364H483.045V22.75H484.182V3.61364Z" fill="#949494"/>
<path d="M733.182 1.61364H732.045V20.75H733.182V1.61364Z" fill="#949494"/>
<path d="M580.182 1.61364H579.045V20.75H580.182V1.61364Z" fill="#949494"/>
<path d="M256.017 16L256.881 13.3466H261.08L261.943 16H264.58L260.568 4.36364H257.398L253.381 16H256.017ZM257.506 11.4261L258.938 7.02273H259.028L260.46 11.4261H257.506ZM268.195 4.36364H265.775V16H268.195V4.36364ZM272.394 4.36364H269.974V16H272.394V4.36364ZM277.762 16H280.222V11.875H282.018L284.222 16H286.938L284.467 11.4773C285.79 10.9091 286.523 9.75568 286.523 8.16477C286.523 5.85227 284.995 4.36364 282.353 4.36364H277.762V16ZM280.222 9.89773V6.375H281.881C283.302 6.375 283.989 7.00568 283.989 8.16477C283.989 9.31818 283.302 9.89773 281.893 9.89773H280.222ZM288.057 16H290.477V7.27273H288.057V16ZM289.272 6.14773C289.994 6.14773 290.585 5.59659 290.585 4.92045C290.585 4.25 289.994 3.69886 289.272 3.69886C288.557 3.69886 287.966 4.25 287.966 4.92045C287.966 5.59659 288.557 6.14773 289.272 6.14773ZM296.188 19.4545C298.682 19.4545 300.455 18.3182 300.455 16.0852V7.27273H298.051V8.73864H297.96C297.637 8.02841 296.926 7.15909 295.466 7.15909C293.551 7.15909 291.932 8.64773 291.932 11.6193C291.932 14.5227 293.506 15.875 295.472 15.875C296.864 15.875 297.642 15.1761 297.96 14.4545H298.063V16.0511C298.063 17.25 297.296 17.7159 296.245 17.7159C295.176 17.7159 294.637 17.25 294.438 16.7216L292.199 17.0227C292.489 18.3977 293.835 19.4545 296.188 19.4545ZM296.239 14.0568C295.051 14.0568 294.404 13.1136 294.404 11.608C294.404 10.125 295.04 9.08523 296.239 9.08523C297.415 9.08523 298.074 10.0795 298.074 11.608C298.074 13.1477 297.404 14.0568 296.239 14.0568ZM304.641 10.9545C304.647 9.82955 305.335 9.17045 306.323 9.17045C307.306 9.17045 307.886 9.80114 307.88 10.875V16H310.3V10.4432C310.306 8.39773 309.102 7.15909 307.283 7.15909C305.96 7.15909 305.073 7.78409 304.675 8.8125H304.573V4.36364H302.221V16H304.641V10.9545ZM316.687 7.27273H315.045V5.18182H312.625V7.27273H311.432V9.09091H312.625V13.6364C312.613 15.3466 313.778 16.1932 315.534 16.1193C316.159 16.0966 316.602 15.9716 316.846 15.892L316.466 14.0909C316.346 14.1136 316.091 14.1705 315.863 14.1705C315.381 14.1705 315.045 13.9886 315.045 13.3182V9.09091H316.687V7.27273ZM325.24 9.76136C325.024 8.15341 323.729 7.15909 321.524 7.15909C319.292 7.15909 317.82 8.19318 317.826 9.875C317.82 11.1818 318.644 12.0284 320.348 12.3693L321.86 12.6705C322.621 12.8239 322.968 13.1023 322.979 13.5398C322.968 14.0568 322.405 14.4261 321.559 14.4261C320.695 14.4261 320.121 14.0568 319.973 13.3466L317.593 13.4716C317.82 15.142 319.24 16.1705 321.553 16.1705C323.814 16.1705 325.434 15.017 325.439 13.2955C325.434 12.0341 324.61 11.2784 322.917 10.9318L321.337 10.6136C320.524 10.4375 320.223 10.1591 320.229 9.73864C320.223 9.21591 320.814 8.875 321.564 8.875C322.405 8.875 322.905 9.33523 323.024 9.89773L325.24 9.76136ZM330.392 16H332.852V11.875H334.648L336.852 16H339.568L337.097 11.4773C338.42 10.9091 339.153 9.75568 339.153 8.16477C339.153 5.85227 337.625 4.36364 334.983 4.36364H330.392V16ZM332.852 9.89773V6.375H334.511C335.932 6.375 336.619 7.00568 336.619 8.16477C336.619 9.31818 335.932 9.89773 334.523 9.89773H332.852ZM344.523 16.1705C346.682 16.1705 348.137 15.1193 348.478 13.5L346.239 13.3523C345.995 14.017 345.37 14.3636 344.563 14.3636C343.353 14.3636 342.586 13.5625 342.586 12.2614V12.2557H348.529V11.5909C348.529 8.625 346.733 7.15909 344.427 7.15909C341.858 7.15909 340.194 8.98295 340.194 11.6761C340.194 14.4432 341.836 16.1705 344.523 16.1705ZM342.586 10.7557C342.637 9.76136 343.393 8.96591 344.466 8.96591C345.518 8.96591 346.245 9.71591 346.25 10.7557H342.586ZM357.21 9.76136C356.994 8.15341 355.698 7.15909 353.494 7.15909C351.261 7.15909 349.789 8.19318 349.795 9.875C349.789 11.1818 350.613 12.0284 352.318 12.3693L353.829 12.6705C354.59 12.8239 354.937 13.1023 354.948 13.5398C354.937 14.0568 354.375 14.4261 353.528 14.4261C352.664 14.4261 352.09 14.0568 351.943 13.3466L349.562 13.4716C349.789 15.142 351.21 16.1705 353.522 16.1705C355.784 16.1705 357.403 15.017 357.409 13.2955C357.403 12.0341 356.579 11.2784 354.886 10.9318L353.306 10.6136C352.494 10.4375 352.193 10.1591 352.198 9.73864C352.193 9.21591 352.784 8.875 353.534 8.875C354.375 8.875 354.875 9.33523 354.994 9.89773L357.21 9.76136ZM362.75 16.1705C364.909 16.1705 366.364 15.1193 366.705 13.5L364.466 13.3523C364.222 14.017 363.597 14.3636 362.79 14.3636C361.58 14.3636 360.813 13.5625 360.813 12.2614V12.2557H366.756V11.5909C366.756 8.625 364.96 7.15909 362.653 7.15909C360.085 7.15909 358.421 8.98295 358.421 11.6761C358.421 14.4432 360.063 16.1705 362.75 16.1705ZM360.813 10.7557C360.864 9.76136 361.619 8.96591 362.693 8.96591C363.744 8.96591 364.472 9.71591 364.477 10.7557H360.813ZM368.175 16H370.596V11.0625C370.596 9.98864 371.38 9.25 372.448 9.25C372.783 9.25 373.243 9.30682 373.471 9.38068V7.23295C373.255 7.18182 372.954 7.14773 372.709 7.14773C371.732 7.14773 370.931 7.71591 370.613 8.79545H370.522V7.27273H368.175V16ZM382.964 7.27273H380.402L378.595 13.517H378.504L376.691 7.27273H374.135L377.186 16H379.913L382.964 7.27273ZM387.723 16.1705C389.882 16.1705 391.337 15.1193 391.678 13.5L389.439 13.3523C389.195 14.017 388.57 14.3636 387.763 14.3636C386.553 14.3636 385.786 13.5625 385.786 12.2614V12.2557H391.729V11.5909C391.729 8.625 389.933 7.15909 387.627 7.15909C385.058 7.15909 383.394 8.98295 383.394 11.6761C383.394 14.4432 385.036 16.1705 387.723 16.1705ZM385.786 10.7557C385.837 9.76136 386.592 8.96591 387.666 8.96591C388.717 8.96591 389.445 9.71591 389.45 10.7557H385.786ZM396.364 16.142C397.773 16.142 398.506 15.3295 398.842 14.6023H398.944V16H401.33V4.36364H398.915V8.73864H398.842C398.518 8.02841 397.819 7.15909 396.359 7.15909C394.444 7.15909 392.825 8.64773 392.825 11.6477C392.825 14.5682 394.376 16.142 396.364 16.142ZM397.131 14.2159C395.944 14.2159 395.296 13.1591 395.296 11.6364C395.296 10.125 395.932 9.08523 397.131 9.08523C398.307 9.08523 398.967 10.0795 398.967 11.6364C398.967 13.1932 398.296 14.2159 397.131 14.2159ZM404.575 16.1477C405.302 16.1477 405.933 15.5398 405.939 14.7841C405.933 14.0398 405.302 13.4318 404.575 13.4318C403.825 13.4318 403.206 14.0398 403.211 14.7841C403.206 15.5398 403.825 16.1477 404.575 16.1477Z" fill="#949494"/>
<path d="M88 4C84.6863 4 82 7.134 82 11C82 14.866 84.6863 18 88 18C91.3137 18 94 14.866 94 11C94 7.134 91.3137 4 88 4ZM90.8339 13.7874C90.7954 13.8401 89.8716 15.0782 88.1762 15.0782C86.1272 15.0782 84.6806 13.2926 84.6806 10.9694C84.6806 8.67459 86.1807 6.92182 88.1587 6.92182C89.7787 6.92182 90.6256 7.97507 90.6609 8.01992C90.7043 8.07515 90.7308 8.14564 90.7362 8.22033C90.7417 8.29502 90.7257 8.3697 90.6908 8.43267L90.1494 9.41083C90.0514 9.58772 89.8403 9.61832 89.7082 9.47561C89.7026 9.46957 89.0664 8.80158 88.2111 8.80158C87.0954 8.80158 86.4228 9.74926 86.4228 10.9491C86.4228 12.0669 87.0401 13.1984 88.2199 13.1984C89.1561 13.1984 89.7992 12.3986 89.8056 12.3905C89.9298 12.2334 90.1458 12.2484 90.2534 12.4202L90.8473 13.3678C90.8858 13.4293 90.9055 13.5042 90.903 13.5803C90.9006 13.6564 90.8762 13.7294 90.8339 13.7874Z" fill="#949494"/>
</svg>
