<svg width="375" height="39" viewBox="0 0 375 39" fill="none" xmlns="http://www.w3.org/2000/svg">
<path d="M0 0H375V39H0V0Z" fill="#FCFCFC"/>
<path d="M16.233 21H17.4659V17.2812H19.6932C22.0646 17.2812 23.1335 15.8395 23.1335 14.0398C23.1335 12.2401 22.0646 10.8182 19.6733 10.8182H16.233V21ZM17.4659 16.1875V11.9119H19.6335C21.2891 11.9119 21.9205 12.8168 21.9205 14.0398C21.9205 15.2628 21.2891 16.1875 19.6534 16.1875H17.4659ZM24.8206 21H25.9939V16.1676C25.9939 15.1335 26.8092 14.3778 27.9229 14.3778C28.2361 14.3778 28.5592 14.4375 28.6388 14.4574V13.2642C28.5045 13.2543 28.1963 13.2443 28.0223 13.2443C27.1075 13.2443 26.3121 13.7614 26.0337 14.517H25.9541V13.3636H24.8206V21ZM29.8896 21H31.0629V13.3636H29.8896V21ZM30.4862 12.0909C30.9435 12.0909 31.3214 11.733 31.3214 11.2955C31.3214 10.858 30.9435 10.5 30.4862 10.5C30.0288 10.5 29.6509 10.858 29.6509 11.2955C29.6509 11.733 30.0288 12.0909 30.4862 12.0909ZM39.3162 13.3636H38.0434L35.9355 19.4489H35.8559L33.748 13.3636H32.4752L35.2991 21H36.4923L39.3162 13.3636ZM42.7395 21.179C44.0719 21.179 44.7679 20.4631 45.0066 19.9659H45.0662V21H46.2395V15.9688C46.2395 13.5426 44.3901 13.2642 43.4157 13.2642C42.2623 13.2642 40.9498 13.6619 40.3532 15.054L41.4668 15.4517C41.7253 14.8949 42.3368 14.2983 43.4554 14.2983C44.5343 14.2983 45.0662 14.87 45.0662 15.8494V15.8892C45.0662 16.456 44.4895 16.4062 43.0975 16.5852C41.6806 16.7692 40.1344 17.0824 40.1344 18.8324C40.1344 20.3239 41.2878 21.179 42.7395 21.179ZM42.9185 20.125C41.9839 20.125 41.3077 19.7074 41.3077 18.892C41.3077 17.9972 42.1231 17.7188 43.0378 17.5994C43.535 17.5398 44.8674 17.4006 45.0662 17.1619V18.2358C45.0662 19.1903 44.3106 20.125 42.9185 20.125ZM51.3433 21.1591C53.0337 21.1591 54.1473 20.125 54.3462 18.7727H53.1729C52.9541 19.608 52.2581 20.1051 51.3433 20.1051C49.9513 20.1051 49.0564 18.9517 49.0564 17.1818C49.0564 15.4517 49.9712 14.3182 51.3433 14.3182C52.3774 14.3182 52.9939 14.9545 53.1729 15.6506H54.3462C54.1473 14.2188 52.9342 13.2642 51.3234 13.2642C49.2553 13.2642 47.8831 14.8949 47.8831 17.2216C47.8831 19.5085 49.1956 21.1591 51.3433 21.1591ZM56.677 23.8636C57.736 23.8636 58.4817 23.3018 58.9242 22.1136L62.1756 13.3835L60.893 13.3636L58.785 19.4489H58.7055L56.5975 13.3636H55.3248L58.1486 21.0398L57.9299 21.6364C57.5023 22.7997 56.9753 22.9091 56.1202 22.6903L55.8219 23.7244C55.9412 23.7841 56.2793 23.8636 56.677 23.8636Z" fill="#949494"/>
<path d="M95.3143 15C94.9365 12.9119 93.266 11.679 91.2177 11.679C88.6126 11.679 86.7234 13.6875 86.7234 16.9091C86.7234 20.1307 88.6126 22.1392 91.2177 22.1392C93.266 22.1392 94.9365 20.9062 95.3143 18.8182H94.0814C93.7831 20.2301 92.57 20.9858 91.2177 20.9858C89.3683 20.9858 87.9166 19.554 87.9166 16.9091C87.9166 14.2642 89.3683 12.8324 91.2177 12.8324C92.57 12.8324 93.7831 13.5881 94.0814 15H95.3143ZM100.11 22.1591C102.178 22.1591 103.57 20.5881 103.57 18.2216C103.57 15.8352 102.178 14.2642 100.11 14.2642C98.0417 14.2642 96.6496 15.8352 96.6496 18.2216C96.6496 20.5881 98.0417 22.1591 100.11 22.1591ZM100.11 21.1051C98.5388 21.1051 97.8229 19.7528 97.8229 18.2216C97.8229 16.6903 98.5388 15.3182 100.11 15.3182C101.681 15.3182 102.397 16.6903 102.397 18.2216C102.397 19.7528 101.681 21.1051 100.11 21.1051ZM108.323 22.1591C110.392 22.1591 111.784 20.5881 111.784 18.2216C111.784 15.8352 110.392 14.2642 108.323 14.2642C106.255 14.2642 104.863 15.8352 104.863 18.2216C104.863 20.5881 106.255 22.1591 108.323 22.1591ZM108.323 21.1051C106.752 21.1051 106.036 19.7528 106.036 18.2216C106.036 16.6903 106.752 15.3182 108.323 15.3182C109.894 15.3182 110.61 16.6903 110.61 18.2216C110.61 19.7528 109.894 21.1051 108.323 21.1051ZM113.435 22H114.608V19.1413L115.428 18.3807L118.287 22H119.778L116.313 17.625L119.54 14.3636H118.088L114.747 17.7642H114.608V11.8182H113.435V22ZM120.91 22H122.083V14.3636H120.91V22ZM121.506 13.0909C121.964 13.0909 122.342 12.733 122.342 12.2955C122.342 11.858 121.964 11.5 121.506 11.5C121.049 11.5 120.671 11.858 120.671 12.2955C120.671 12.733 121.049 13.0909 121.506 13.0909ZM127.294 22.1591C128.845 22.1591 129.978 21.3835 130.336 20.2301L129.203 19.9119C128.905 20.7074 128.214 21.1051 127.294 21.1051C125.917 21.1051 124.967 20.2152 124.912 18.5795H130.456V18.0824C130.456 15.2386 128.765 14.2642 127.175 14.2642C125.106 14.2642 123.734 15.8949 123.734 18.2415C123.734 20.5881 125.086 22.1591 127.294 22.1591ZM124.912 17.5653C124.992 16.3771 125.832 15.3182 127.175 15.3182C128.447 15.3182 129.263 16.2727 129.263 17.5653H124.912ZM137.51 16.0739C137.142 14.9901 136.316 14.2642 134.805 14.2642C133.194 14.2642 132.001 15.179 132.001 16.4716C132.001 17.5256 132.628 18.2315 134.03 18.5597L135.302 18.858C136.073 19.0369 136.436 19.4048 136.436 19.9318C136.436 20.5881 135.74 21.125 134.646 21.125C133.687 21.125 133.085 20.7124 132.876 19.892L131.762 20.1705C132.036 21.468 133.105 22.1591 134.666 22.1591C136.441 22.1591 137.649 21.1896 137.649 19.8722C137.649 18.8082 136.983 18.1371 135.62 17.804L134.487 17.5256C133.582 17.3018 133.174 16.9986 133.174 16.4119C133.174 15.7557 133.87 15.2784 134.805 15.2784C135.829 15.2784 136.252 15.8452 136.456 16.3722L137.51 16.0739Z" fill="#949494"/>
<path d="M174.817 11.8182V18.4602C174.817 19.9517 173.793 21.0256 172.093 21.0256C170.392 21.0256 169.368 19.9517 169.368 18.4602V11.8182H168.135V18.5597C168.135 20.6477 169.696 22.179 172.093 22.179C174.489 22.179 176.05 20.6477 176.05 18.5597V11.8182H174.817ZM183.622 16.0739C183.254 14.9901 182.429 14.2642 180.918 14.2642C179.307 14.2642 178.114 15.179 178.114 16.4716C178.114 17.5256 178.74 18.2315 180.142 18.5597L181.415 18.858C182.185 19.0369 182.548 19.4048 182.548 19.9318C182.548 20.5881 181.852 21.125 180.759 21.125C179.799 21.125 179.198 20.7124 178.989 19.892L177.875 20.1705C178.149 21.468 179.217 22.1591 180.779 22.1591C182.553 22.1591 183.761 21.1896 183.761 19.8722C183.761 18.8082 183.095 18.1371 181.733 17.804L180.6 17.5256C179.695 17.3018 179.287 16.9986 179.287 16.4119C179.287 15.7557 179.983 15.2784 180.918 15.2784C181.942 15.2784 182.364 15.8452 182.568 16.3722L183.622 16.0739ZM188.589 22.1591C190.14 22.1591 191.274 21.3835 191.632 20.2301L190.498 19.9119C190.2 20.7074 189.509 21.1051 188.589 21.1051C187.212 21.1051 186.263 20.2152 186.208 18.5795H191.751V18.0824C191.751 15.2386 190.061 14.2642 188.47 14.2642C186.402 14.2642 185.03 15.8949 185.03 18.2415C185.03 20.5881 186.382 22.1591 188.589 22.1591ZM186.208 17.5653C186.287 16.3771 187.128 15.3182 188.47 15.3182C189.743 15.3182 190.558 16.2727 190.558 17.5653H186.208ZM193.396 22H194.569V17.1676C194.569 16.1335 195.385 15.3778 196.498 15.3778C196.812 15.3778 197.135 15.4375 197.214 15.4574V14.2642C197.08 14.2543 196.772 14.2443 196.598 14.2443C195.683 14.2443 194.888 14.7614 194.609 15.517H194.53V14.3636H193.396V22ZM202.839 22L203.863 19.1165H207.98L209.004 22H210.297L206.558 11.8182H205.285L201.547 22H202.839ZM204.251 18.0227L205.882 13.429H205.961L207.592 18.0227H204.251ZM214.666 25.0227C216.495 25.0227 217.967 24.1875 217.967 22.2188V14.3636H216.833V15.5767H216.714C216.456 15.179 215.978 14.2642 214.487 14.2642C212.558 14.2642 211.226 15.7955 211.226 18.142C211.226 20.5284 212.618 21.8807 214.467 21.8807C215.958 21.8807 216.436 21.0057 216.694 20.5881H216.794V22.1392C216.794 23.4119 215.899 23.9886 214.666 23.9886C213.279 23.9886 212.792 23.2578 212.478 22.8352L211.544 23.4915C212.021 24.2919 212.961 25.0227 214.666 25.0227ZM214.626 20.8267C213.154 20.8267 212.399 19.7131 212.399 18.1222C212.399 16.571 213.135 15.3182 214.626 15.3182C216.058 15.3182 216.814 16.4716 216.814 18.1222C216.814 19.8125 216.038 20.8267 214.626 20.8267ZM219.975 22H221.148V17.1676C221.148 16.1335 221.963 15.3778 223.077 15.3778C223.39 15.3778 223.713 15.4375 223.793 15.4574V14.2642C223.659 14.2543 223.35 14.2443 223.176 14.2443C222.262 14.2443 221.466 14.7614 221.188 15.517H221.108V14.3636H219.975V22ZM228.013 22.1591C229.564 22.1591 230.698 21.3835 231.056 20.2301L229.922 19.9119C229.624 20.7074 228.933 21.1051 228.013 21.1051C226.636 21.1051 225.686 20.2152 225.632 18.5795H231.175V18.0824C231.175 15.2386 229.485 14.2642 227.894 14.2642C225.825 14.2642 224.453 15.8949 224.453 18.2415C224.453 20.5881 225.806 22.1591 228.013 22.1591ZM225.632 17.5653C225.711 16.3771 226.551 15.3182 227.894 15.3182C229.166 15.3182 229.982 16.2727 229.982 17.5653H225.632ZM236.021 22.1591C237.573 22.1591 238.706 21.3835 239.064 20.2301L237.931 19.9119C237.632 20.7074 236.941 21.1051 236.021 21.1051C234.644 21.1051 233.695 20.2152 233.64 18.5795H239.183V18.0824C239.183 15.2386 237.493 14.2642 235.902 14.2642C233.834 14.2642 232.462 15.8949 232.462 18.2415C232.462 20.5881 233.814 22.1591 236.021 22.1591ZM233.64 17.5653C233.72 16.3771 234.56 15.3182 235.902 15.3182C237.175 15.3182 237.99 16.2727 237.99 17.5653H233.64ZM240.828 22H242.001V17.2273C242.001 16.1087 242.817 15.3182 243.732 15.3182C244.621 15.3182 245.243 15.8999 245.243 16.7699V22H246.436V17.0284C246.436 16.044 247.053 15.3182 248.126 15.3182C248.962 15.3182 249.678 15.7607 249.678 16.8892V22H250.851V16.8892C250.851 15.0945 249.886 14.2642 248.524 14.2642C247.43 14.2642 246.63 14.7663 246.237 15.5568H246.158C245.78 14.7415 245.114 14.2642 244.109 14.2642C243.115 14.2642 242.379 14.7415 242.061 15.5568H241.962V14.3636H240.828V22ZM256.058 22.1591C257.609 22.1591 258.742 21.3835 259.1 20.2301L257.967 19.9119C257.669 20.7074 256.978 21.1051 256.058 21.1051C254.681 21.1051 253.731 20.2152 253.676 18.5795H259.22V18.0824C259.22 15.2386 257.529 14.2642 255.939 14.2642C253.87 14.2642 252.498 15.8949 252.498 18.2415C252.498 20.5881 253.85 22.1591 256.058 22.1591ZM253.676 17.5653C253.756 16.3771 254.596 15.3182 255.939 15.3182C257.211 15.3182 258.027 16.2727 258.027 17.5653H253.676ZM262.038 17.4062C262.038 16.0739 262.863 15.3182 263.987 15.3182C265.076 15.3182 265.737 16.0291 265.737 17.2273V22H266.91V17.1477C266.91 15.1989 265.871 14.2642 264.325 14.2642C263.171 14.2642 262.455 14.7812 262.098 15.5568H261.998V14.3636H260.865V22H262.038V17.4062ZM272.235 14.3636H270.604V12.5341H269.431V14.3636H268.278V15.358H269.431V20.1307C269.431 21.4631 270.505 22.0994 271.499 22.0994C271.937 22.0994 272.215 22.0199 272.374 21.9602L272.136 20.9062C272.036 20.9261 271.877 20.9659 271.619 20.9659C271.102 20.9659 270.604 20.8068 270.604 19.8125V15.358H272.235V14.3636Z" fill="#949494"/>
<path d="M297.67 22L298.694 19.1165H302.811L303.835 22H305.128L301.389 11.8182H300.116L296.378 22H297.67ZM299.082 18.0227L300.713 13.429H300.793L302.423 18.0227H299.082ZM306.574 22H307.707V20.8267H307.846C308.105 21.2443 308.602 22.1591 310.074 22.1591C311.983 22.1591 313.315 20.6278 313.315 18.2017C313.315 15.7955 311.983 14.2642 310.054 14.2642C308.562 14.2642 308.105 15.179 307.846 15.5767H307.747V11.8182H306.574V22ZM307.727 18.1818C307.727 16.4716 308.483 15.3182 309.915 15.3182C311.406 15.3182 312.142 16.571 312.142 18.1818C312.142 19.8125 311.386 21.1051 309.915 21.1051C308.503 21.1051 307.727 19.9119 307.727 18.1818ZM318.072 22.1591C320.14 22.1591 321.532 20.5881 321.532 18.2216C321.532 15.8352 320.14 14.2642 318.072 14.2642C316.004 14.2642 314.612 15.8352 314.612 18.2216C314.612 20.5881 316.004 22.1591 318.072 22.1591ZM318.072 21.1051C316.501 21.1051 315.785 19.7528 315.785 18.2216C315.785 16.6903 316.501 15.3182 318.072 15.3182C319.643 15.3182 320.359 16.6903 320.359 18.2216C320.359 19.7528 319.643 21.1051 318.072 21.1051ZM327.996 18.8778C327.996 20.3097 326.902 20.9659 326.027 20.9659C325.053 20.9659 324.357 20.25 324.357 19.1364V14.3636H323.183V19.2159C323.183 21.1648 324.217 22.0994 325.649 22.0994C326.803 22.0994 327.558 21.483 327.916 20.7074H327.996V22H329.169V14.3636H327.996V18.8778ZM334.499 14.3636H332.869V12.5341H331.695V14.3636H330.542V15.358H331.695V20.1307C331.695 21.4631 332.769 22.0994 333.763 22.0994C334.201 22.0994 334.479 22.0199 334.638 21.9602L334.4 20.9062C334.3 20.9261 334.141 20.9659 333.883 20.9659C333.366 20.9659 332.869 20.8068 332.869 19.8125V15.358H334.499V14.3636Z" fill="#949494"/>
<path d="M74.3254 13.4119H73.331V30.1562H74.3254V13.4119Z" fill="#949494"/>
<path d="M284.457 10.1619H283.463V26.9062H284.457V10.1619Z" fill="#949494"/>
<path d="M155.34 10.1619H154.346V26.9062H155.34V10.1619Z" fill="#949494"/>
</svg>
